# xmcd CD database file
#
# Track frame offsets:
#	150
#	18955
#	33561
#	56805
#	79678
#	100843
#	115093
#	134024
#	157118
#	180245
#	198247
#
# Disc length: 2685 seconds
#
# Revision: 0
# Processed by: cddbd v1.5.2PL0 Copyright (c) Steve Scherf et al.
# Submitted via: cdripper 1,0,15,908
#
DISCID=8c0a7b0b
DTITLE=Judi Deleon - Judi Deleon
DYEAR=2006
DGENRE=Jazz
TTITLE0=Lullaby of Birdland
TTITLE1=Its Too Late
TTITLE2=Stirring My Emotions
TTITLE3=Besame Mucho
TTITLE4=What Does It Take
TTITLE5=JTwo Hearts
TTITLE6=Where Is The Love
TTITLE7=All This Love
TTITLE8=You And I
TTITLE9=Feel Like Making Love
TTITLE10=His Eye Is On The Sparrow
EXTD=YEAR: 2006
EXTT0=
EXTT1=
EXTT2=
EXTT3=
EXTT4=
EXTT5=
EXTT6=
EXTT7=
EXTT8=
EXTT9=
EXTT10=
PLAYORDER=
